<?xml version="1.0" encoding="UTF-8"?>
<svg width="57.288" height="46.34" version="1.1" viewBox="0 0 57.288 46.34" xmlns="http://www.w3.org/2000/svg">
 <g transform="translate(-18.836 -56.408)">
  <text x="56.417595" y="64.423157" fill="#000000" font-size="67.733px" stroke-width=".26458" xml:space="preserve"><tspan x="56.417595" y="64.423157" font-size="67.733px" stroke-width=".26458"/></text>
  <text transform="scale(.26458)" fill="#000000" font-family="'Berkeley Mono'" font-size="341.33px" style="shape-inside:url(#rect12);white-space:pre" xml:space="preserve"/>
  <g transform="matrix(1 0 -.33847 1 36.086 0)">
   <g transform="matrix(.46448 0 0 .46448 -3.8616 15.885)">
    <path d="m113.17 87.244-5.8066 38.268-4.9774-5.058-1.1602-1.1786-1.3119-0.0147-16.281 0.28828-4.1741 1.218-2.2468 1.9512-3.0397 5.0472-2.2218 5.4594-1.1275 3.848-0.26573 3.0701-0.01179 2.6874 0.26387 2.9545 0.81609 3.004 1.1633 3.6573 0.93382 2.6576 1.2651 2.7435 2.55 3.1655 2.7022 2.3965 20.769-0.22249 2.0125-3.1904 1.924-3.4777 1.5508-2.9181 1.6137-2.9073 1.2638-2.7212 1.0888-2.618 0.55504-3.5118 6.1906-54.542zm-22.394 38.201c13.76-4.6263 16.205 5.094 13.2 15.809-3.3609 9.0942-4.6985 13.279-13.793 15.928-12.506 0.76474-15.295-5.6083-13.555-15.928 3.8355-10.32 5.4857-12.077 14.149-15.809z" fill="#c5c8c6" style="paint-order:normal"/>
    <path d="m142.82 119.42-17.645 0.18183c-0.30241 0.11494-3.5952 0.83078-4.131 2.1888-1.0911 1.9132-2.2968 3.7542-3.4899 5.6042l-2.7365 5.3147-2.775 8.2774-5.4521 45.969 4.0374 0.056 5.0681-29.695 6.138 6.2369 1.3119 0.0144 11.888-1.6759 6.3396-2.5314 4.5043-5.3088 2.3033-4.4186 1.8753-7.1991c-0.25582-2.6821 0.64884-6.1972 0.41825-8.8646l-0.97229-5.2919-2.0032-4.2632-1.6405-2.5889-0.95643-1.0501zm-8.1815 7.0047c9.5395-2.847 15.154 4.9935 9.0463 17.864-4.2704 8.0369-5.1217 10.865-14.266 13.87-10.805 4.3496-14.819-5.2798-9.7581-15.452 3.5227-7.4266 6.0626-12.566 14.978-16.282z" fill="#c5c8c6" style="paint-order:normal"/>
    <g transform="translate(15.522)">
     <path d="m48.658 163.1c0.28646-0.41812 0.31096-0.7868 0.31075-1.2444 0.0097-0.52307 0.02418-0.68798-0.1638-1.3072-1.0033-0.22156-2.0955-0.19104-3.2248-0.20007l-19.028-0.15211c-0.57579-4e-3 -0.85101 0.0677-1.4058-0.32137-0.40219-0.62961-0.32619-1.0495-0.32851-1.7281l-0.17163-50.089c-0.0022-0.63107 0.0117-1.1933 0.3049-1.656 0.86098-0.24837 1.1931-0.23973 1.9453-0.24097l20.156-0.0333c1.0067 0.0379 1.4154-0.0623 2.5012 0.47448 0.28794 0.93329 0.50429 1.1597 0.50436 2.1423l2e-3 24.484 2.8814 0.0792-0.0042-27.711c-0.04256-0.65958-0.29418-0.98159-0.54507-1.4773-0.37243-0.50085-0.84372-0.69425-1.5083-0.96179l-26.794-0.0245c-0.76209-6.9e-4 -0.70796 0.0739-1.5181 0.52914-0.49234 0.49103-0.76821 0.75214-0.76822 1.3938l-8.24e-4 55.219c-1.5e-5 0.98878-0.03869 1.3021 0.66473 2.321 0.74956 0.77328 1.1194 0.64458 2.0114 0.64417l21.145-0.01c1.1148-5e-4 1.9627 0.0311 3.0331-0.13001z" fill="#e78c45" style="paint-order:fill markers stroke"/>
     <path d="m49.77 118.51c-0.81208-0.56412-6.1963-0.58385-7.1761-0.5883-0.09072-4.1e-4 -3.6415-0.47374-4.4504 2.2301-1.1539 3.857-0.93159 23.807-0.33872 24.405 0.31887 0.32156 1.9284 0.0983 4.0723 0.15821 2.9236 0.0818 5.6699 0.0516 8.321-0.30827 0.60152-0.0816 0.72398-1.2746 0.83805-1.8454 0.52545-3.5904 0.27935-7.2318 0.27935-10.849 0.02407-4.4464 0.12753-10.281 0.0692-11.399-0.02929-0.56158-0.22234-0.83621-0.82262-1.2532z" fill="none" stroke="#e78c45" stroke-linecap="round" stroke-linejoin="round" stroke-width="3.1689" style="paint-order:fill markers stroke"/>
    </g>
   </g>
  </g>
 </g>
</svg>
